<?xml version="1.0" encoding="UTF-8" standalone="no"?>
<!DOCTYPE svg PUBLIC "-//W3C//DTD SVG 1.1//EN"
 "http://www.w3.org/Graphics/SVG/1.1/DTD/svg11.dtd">
<!-- Generated by graphviz version 2.50.0 (20211204.2007)
 -->
<!-- Title: G Pages: 1 -->
<svg width="799pt" height="262pt"
 viewBox="0.00 0.00 799.00 261.50" xmlns="http://www.w3.org/2000/svg" xmlns:xlink="http://www.w3.org/1999/xlink">
<g id="graph0" class="graph" transform="scale(1 1) rotate(0) translate(4 257.5)">
<title>G</title>
<polygon fill="white" stroke="transparent" points="-4,4 -4,-257.5 795,-257.5 795,4 -4,4"/>
<g id="clust2" class="cluster">
<title>cluster_44c834c8</title>
<polygon fill="none" stroke="black" stroke-dasharray="1,5" points="46,-116.5 46,-245.5 783,-245.5 783,-116.5 46,-116.5"/>
<text text-anchor="middle" x="414.5" y="-230.3" font-family="Times New Roman,serif" font-size="14.00">File: logistic_train_model</text>
</g>
<!-- Legend -->
<g id="node1" class="node">
<title>Legend</title>
<polygon fill="none" stroke="black" points="1.5,-88.5 1.5,-105.5 266.5,-105.5 266.5,-88.5 1.5,-88.5"/>
<text text-anchor="start" x="80" y="-93.3" font-family="Times New Roman,serif" font-size="14.00">Code2flow Legend</text>
<polygon fill="none" stroke="black" points="1.5,-0.5 1.5,-88.5 266.5,-88.5 266.5,-0.5 1.5,-0.5"/>
<polygon fill="none" stroke="black" points="3.5,-65.5 3.5,-86.5 214.5,-86.5 214.5,-65.5 3.5,-65.5"/>
<text text-anchor="start" x="62.5" y="-72.3" font-family="Times New Roman,serif" font-size="14.00">Regular function</text>
<polygon fill="#cccccc" stroke="transparent" points="214.5,-65.5 214.5,-86.5 264.5,-86.5 264.5,-65.5 214.5,-65.5"/>
<polygon fill="none" stroke="black" points="214.5,-65.5 214.5,-86.5 264.5,-86.5 264.5,-65.5 214.5,-65.5"/>
<polygon fill="none" stroke="black" points="3.5,-44.5 3.5,-65.5 214.5,-65.5 214.5,-44.5 3.5,-44.5"/>
<text text-anchor="start" x="14" y="-51.3" font-family="Times New Roman,serif" font-size="14.00">Trunk function (nothing calls this)</text>
<polygon fill="#966f33" stroke="transparent" points="214.5,-44.5 214.5,-65.5 264.5,-65.5 264.5,-44.5 214.5,-44.5"/>
<polygon fill="none" stroke="black" points="214.5,-44.5 214.5,-65.5 264.5,-65.5 264.5,-44.5 214.5,-44.5"/>
<polygon fill="none" stroke="black" points="3.5,-23.5 3.5,-44.5 214.5,-44.5 214.5,-23.5 3.5,-23.5"/>
<text text-anchor="start" x="6.5" y="-30.3" font-family="Times New Roman,serif" font-size="14.00">Leaf function (this calls nothing else)</text>
<polygon fill="#6db33f" stroke="transparent" points="214.5,-23.5 214.5,-44.5 264.5,-44.5 264.5,-23.5 214.5,-23.5"/>
<polygon fill="none" stroke="black" points="214.5,-23.5 214.5,-44.5 264.5,-44.5 264.5,-23.5 214.5,-23.5"/>
<polygon fill="none" stroke="black" points="3.5,-2.5 3.5,-23.5 214.5,-23.5 214.5,-2.5 3.5,-2.5"/>
<text text-anchor="start" x="72.5" y="-9.3" font-family="Times New Roman,serif" font-size="14.00">Function call</text>
<polygon fill="none" stroke="black" points="214.5,-2.5 214.5,-23.5 264.5,-23.5 264.5,-2.5 214.5,-2.5"/>
<text text-anchor="start" x="232" y="-9.3" font-family="Times New Roman,serif" font-size="14.00">→</text>
<polygon fill="none" stroke="black" points="2.5,-1.5 2.5,-87.5 265.5,-87.5 265.5,-1.5 2.5,-1.5"/>
<polygon fill="none" stroke="black" points="0,0 0,-107 267,-107 267,0 0,0"/>
</g>
<!-- node_6051d5ab -->
<g id="node2" class="node">
<title>node_6051d5ab</title>
<path fill="#6db33f" stroke="black" d="M739,-160.5C739,-160.5 578,-160.5 578,-160.5 572,-160.5 566,-154.5 566,-148.5 566,-148.5 566,-136.5 566,-136.5 566,-130.5 572,-124.5 578,-124.5 578,-124.5 739,-124.5 739,-124.5 745,-124.5 751,-130.5 751,-136.5 751,-136.5 751,-148.5 751,-148.5 751,-154.5 745,-160.5 739,-160.5"/>
<text text-anchor="middle" x="658.5" y="-138.8" font-family="Times New Roman,serif" font-size="14.00">29: coeff_dict_to_sorted_df()</text>
</g>
<!-- node_1834bf82 -->
<g id="node3" class="node">
<title>node_1834bf82</title>
<path fill="#6db33f" stroke="black" d="M487.5,-160.5C487.5,-160.5 321.5,-160.5 321.5,-160.5 315.5,-160.5 309.5,-154.5 309.5,-148.5 309.5,-148.5 309.5,-136.5 309.5,-136.5 309.5,-130.5 315.5,-124.5 321.5,-124.5 321.5,-124.5 487.5,-124.5 487.5,-124.5 493.5,-124.5 499.5,-130.5 499.5,-136.5 499.5,-136.5 499.5,-148.5 499.5,-148.5 499.5,-154.5 493.5,-160.5 487.5,-160.5"/>
<text text-anchor="middle" x="404.5" y="-138.8" font-family="Times New Roman,serif" font-size="14.00">12: create_clf_logistic_model()</text>
</g>
<!-- node_d3039e8b -->
<g id="node4" class="node">
<title>node_d3039e8b</title>
<path fill="#6db33f" stroke="black" d="M763,-214.5C763,-214.5 554,-214.5 554,-214.5 548,-214.5 542,-208.5 542,-202.5 542,-202.5 542,-190.5 542,-190.5 542,-184.5 548,-178.5 554,-178.5 554,-178.5 763,-178.5 763,-178.5 769,-178.5 775,-184.5 775,-190.5 775,-190.5 775,-202.5 775,-202.5 775,-208.5 769,-214.5 763,-214.5"/>
<text text-anchor="middle" x="658.5" y="-192.8" font-family="Times New Roman,serif" font-size="14.00">18: create_coeff_dict_logistic_model()</text>
</g>
<!-- node_cecef7ce -->
<g id="node5" class="node">
<title>node_cecef7ce</title>
<path fill="#cccccc" stroke="black" d="M494,-214.5C494,-214.5 315,-214.5 315,-214.5 309,-214.5 303,-208.5 303,-202.5 303,-202.5 303,-190.5 303,-190.5 303,-184.5 309,-178.5 315,-178.5 315,-178.5 494,-178.5 494,-178.5 500,-178.5 506,-184.5 506,-190.5 506,-190.5 506,-202.5 506,-202.5 506,-208.5 500,-214.5 494,-214.5"/>
<text text-anchor="middle" x="404.5" y="-192.8" font-family="Times New Roman,serif" font-size="14.00">40: interpret_clf_logistic_model()</text>
</g>
<!-- node_cecef7ce&#45;&gt;node_6051d5ab -->
<g id="edge1" class="edge">
<title>node_cecef7ce&#45;&gt;node_6051d5ab</title>
<path fill="none" stroke="#d55e00" stroke-width="2" d="M506.11,-190.5C516.88,-190.5 524,-190.5 524,-190.5 524,-190.5 524,-142.5 524,-142.5 524,-142.5 555.82,-142.5 555.82,-142.5"/>
<polygon fill="#d55e00" stroke="#d55e00" stroke-width="2" points="555.82,-146 565.82,-142.5 555.82,-139 555.82,-146"/>
</g>
<!-- node_cecef7ce&#45;&gt;node_d3039e8b -->
<g id="edge2" class="edge">
<title>node_cecef7ce&#45;&gt;node_d3039e8b</title>
<path fill="none" stroke="#d55e00" stroke-width="2" d="M506.35,-202.5C506.35,-202.5 531.59,-202.5 531.59,-202.5"/>
<polygon fill="#d55e00" stroke="#d55e00" stroke-width="2" points="531.59,-206 541.59,-202.5 531.59,-199 531.59,-206"/>
</g>
<!-- node_cf98c9bd -->
<g id="node6" class="node">
<title>node_cf98c9bd</title>
<path fill="#966f33" stroke="black" d="M201,-187.5C201,-187.5 66,-187.5 66,-187.5 60,-187.5 54,-181.5 54,-175.5 54,-175.5 54,-163.5 54,-163.5 54,-157.5 60,-151.5 66,-151.5 66,-151.5 201,-151.5 201,-151.5 207,-151.5 213,-157.5 213,-163.5 213,-163.5 213,-175.5 213,-175.5 213,-181.5 207,-187.5 201,-187.5"/>
<text text-anchor="middle" x="133.5" y="-165.8" font-family="Times New Roman,serif" font-size="14.00">60: logistic_train_model()</text>
</g>
<!-- node_cf98c9bd&#45;&gt;node_1834bf82 -->
<g id="edge3" class="edge">
<title>node_cf98c9bd&#45;&gt;node_1834bf82</title>
<path fill="none" stroke="#0072b2" stroke-width="2" d="M213.34,-156C213.34,-156 299.44,-156 299.44,-156"/>
<polygon fill="#0072b2" stroke="#0072b2" stroke-width="2" points="299.44,-159.5 309.44,-156 299.44,-152.5 299.44,-159.5"/>
</g>
<!-- node_cf98c9bd&#45;&gt;node_cecef7ce -->
<g id="edge4" class="edge">
<title>node_cf98c9bd&#45;&gt;node_cecef7ce</title>
<path fill="none" stroke="#0072b2" stroke-width="2" d="M213.34,-183C213.34,-183 292.57,-183 292.57,-183"/>
<polygon fill="#0072b2" stroke="#0072b2" stroke-width="2" points="292.57,-186.5 302.57,-183 292.57,-179.5 292.57,-186.5"/>
</g>
</g>
</svg>
