<?xml version="1.0" encoding="UTF-8" standalone="no"?>
<!DOCTYPE svg PUBLIC "-//W3C//DTD SVG 1.1//EN"
 "http://www.w3.org/Graphics/SVG/1.1/DTD/svg11.dtd">
<!-- Generated by graphviz version 2.50.0 (20211204.2007)
 -->
<!-- Title: G Pages: 1 -->
<svg width="549pt" height="209pt"
 viewBox="0.00 0.00 549.00 208.50" xmlns="http://www.w3.org/2000/svg" xmlns:xlink="http://www.w3.org/1999/xlink">
<g id="graph0" class="graph" transform="scale(1 1) rotate(0) translate(4 204.5)">
<title>G</title>
<polygon fill="white" stroke="transparent" points="-4,4 -4,-204.5 545,-204.5 545,4 -4,4"/>
<g id="clust2" class="cluster">
<title>cluster_3c83f67a</title>
<polygon fill="none" stroke="black" stroke-dasharray="1,5" points="39.5,-117.5 39.5,-192.5 533,-192.5 533,-117.5 39.5,-117.5"/>
<text text-anchor="middle" x="286.25" y="-177.3" font-family="Times New Roman,serif" font-size="14.00">File: util_predict_model</text>
</g>
<!-- Legend -->
<g id="node1" class="node">
<title>Legend</title>
<polygon fill="none" stroke="black" points="1.5,-88.5 1.5,-105.5 266.5,-105.5 266.5,-88.5 1.5,-88.5"/>
<text text-anchor="start" x="80" y="-93.3" font-family="Times New Roman,serif" font-size="14.00">Code2flow Legend</text>
<polygon fill="none" stroke="black" points="1.5,-0.5 1.5,-88.5 266.5,-88.5 266.5,-0.5 1.5,-0.5"/>
<polygon fill="none" stroke="black" points="3.5,-65.5 3.5,-86.5 214.5,-86.5 214.5,-65.5 3.5,-65.5"/>
<text text-anchor="start" x="62.5" y="-72.3" font-family="Times New Roman,serif" font-size="14.00">Regular function</text>
<polygon fill="#cccccc" stroke="transparent" points="214.5,-65.5 214.5,-86.5 264.5,-86.5 264.5,-65.5 214.5,-65.5"/>
<polygon fill="none" stroke="black" points="214.5,-65.5 214.5,-86.5 264.5,-86.5 264.5,-65.5 214.5,-65.5"/>
<polygon fill="none" stroke="black" points="3.5,-44.5 3.5,-65.5 214.5,-65.5 214.5,-44.5 3.5,-44.5"/>
<text text-anchor="start" x="14" y="-51.3" font-family="Times New Roman,serif" font-size="14.00">Trunk function (nothing calls this)</text>
<polygon fill="#966f33" stroke="transparent" points="214.5,-44.5 214.5,-65.5 264.5,-65.5 264.5,-44.5 214.5,-44.5"/>
<polygon fill="none" stroke="black" points="214.5,-44.5 214.5,-65.5 264.5,-65.5 264.5,-44.5 214.5,-44.5"/>
<polygon fill="none" stroke="black" points="3.5,-23.5 3.5,-44.5 214.5,-44.5 214.5,-23.5 3.5,-23.5"/>
<text text-anchor="start" x="6.5" y="-30.3" font-family="Times New Roman,serif" font-size="14.00">Leaf function (this calls nothing else)</text>
<polygon fill="#6db33f" stroke="transparent" points="214.5,-23.5 214.5,-44.5 264.5,-44.5 264.5,-23.5 214.5,-23.5"/>
<polygon fill="none" stroke="black" points="214.5,-23.5 214.5,-44.5 264.5,-44.5 264.5,-23.5 214.5,-23.5"/>
<polygon fill="none" stroke="black" points="3.5,-2.5 3.5,-23.5 214.5,-23.5 214.5,-2.5 3.5,-2.5"/>
<text text-anchor="start" x="72.5" y="-9.3" font-family="Times New Roman,serif" font-size="14.00">Function call</text>
<polygon fill="none" stroke="black" points="214.5,-2.5 214.5,-23.5 264.5,-23.5 264.5,-2.5 214.5,-2.5"/>
<text text-anchor="start" x="232" y="-9.3" font-family="Times New Roman,serif" font-size="14.00">→</text>
<polygon fill="none" stroke="black" points="2.5,-1.5 2.5,-87.5 265.5,-87.5 265.5,-1.5 2.5,-1.5"/>
<polygon fill="none" stroke="black" points="0,0 0,-107 267,-107 267,0 0,0"/>
</g>
<!-- node_f7d6803b -->
<g id="node2" class="node">
<title>node_f7d6803b</title>
<path fill="#966f33" stroke="black" d="M207.5,-161.5C207.5,-161.5 59.5,-161.5 59.5,-161.5 53.5,-161.5 47.5,-155.5 47.5,-149.5 47.5,-149.5 47.5,-137.5 47.5,-137.5 47.5,-131.5 53.5,-125.5 59.5,-125.5 59.5,-125.5 207.5,-125.5 207.5,-125.5 213.5,-125.5 219.5,-131.5 219.5,-137.5 219.5,-137.5 219.5,-149.5 219.5,-149.5 219.5,-155.5 213.5,-161.5 207.5,-161.5"/>
<text text-anchor="middle" x="133.5" y="-139.8" font-family="Times New Roman,serif" font-size="14.00">40: make_prediction_view()</text>
</g>
<!-- node_55e3ab95 -->
<g id="node3" class="node">
<title>node_55e3ab95</title>
<path fill="#6db33f" stroke="black" d="M513,-161.5C513,-161.5 315,-161.5 315,-161.5 309,-161.5 303,-155.5 303,-149.5 303,-149.5 303,-137.5 303,-137.5 303,-131.5 309,-125.5 315,-125.5 315,-125.5 513,-125.5 513,-125.5 519,-125.5 525,-131.5 525,-137.5 525,-137.5 525,-149.5 525,-149.5 525,-155.5 519,-161.5 513,-161.5"/>
<text text-anchor="middle" x="414" y="-139.8" font-family="Times New Roman,serif" font-size="14.00">23: probability_threshold_explainer()</text>
</g>
<!-- node_f7d6803b&#45;&gt;node_55e3ab95 -->
<g id="edge1" class="edge">
<title>node_f7d6803b&#45;&gt;node_55e3ab95</title>
<path fill="none" stroke="#009e73" stroke-width="2" d="M219.57,-143.5C219.57,-143.5 292.98,-143.5 292.98,-143.5"/>
<polygon fill="#009e73" stroke="#009e73" stroke-width="2" points="292.98,-147 302.98,-143.5 292.98,-140 292.98,-147"/>
</g>
</g>
</svg>
