<?xml version="1.0" encoding="UTF-8" standalone="no"?>
<!DOCTYPE svg PUBLIC "-//W3C//DTD SVG 1.1//EN"
 "http://www.w3.org/Graphics/SVG/1.1/DTD/svg11.dtd">
<!-- Generated by graphviz version 2.50.0 (20211204.2007)
 -->
<!-- Title: G Pages: 1 -->
<svg width="515pt" height="262pt"
 viewBox="0.00 0.00 515.00 261.50" xmlns="http://www.w3.org/2000/svg" xmlns:xlink="http://www.w3.org/1999/xlink">
<g id="graph0" class="graph" transform="scale(1 1) rotate(0) translate(4 257.5)">
<title>G</title>
<polygon fill="white" stroke="transparent" points="-4,4 -4,-257.5 511,-257.5 511,4 -4,4"/>
<g id="clust2" class="cluster">
<title>cluster_4d7ce8f1</title>
<polygon fill="none" stroke="black" stroke-dasharray="1,5" points="43,-116.5 43,-245.5 499,-245.5 499,-116.5 43,-116.5"/>
<text text-anchor="middle" x="271" y="-230.3" font-family="Times New Roman,serif" font-size="14.00">File: xgboost_train_model</text>
</g>
<!-- Legend -->
<g id="node1" class="node">
<title>Legend</title>
<polygon fill="none" stroke="black" points="1.5,-88.5 1.5,-105.5 266.5,-105.5 266.5,-88.5 1.5,-88.5"/>
<text text-anchor="start" x="80" y="-93.3" font-family="Times New Roman,serif" font-size="14.00">Code2flow Legend</text>
<polygon fill="none" stroke="black" points="1.5,-0.5 1.5,-88.5 266.5,-88.5 266.5,-0.5 1.5,-0.5"/>
<polygon fill="none" stroke="black" points="3.5,-65.5 3.5,-86.5 214.5,-86.5 214.5,-65.5 3.5,-65.5"/>
<text text-anchor="start" x="62.5" y="-72.3" font-family="Times New Roman,serif" font-size="14.00">Regular function</text>
<polygon fill="#cccccc" stroke="transparent" points="214.5,-65.5 214.5,-86.5 264.5,-86.5 264.5,-65.5 214.5,-65.5"/>
<polygon fill="none" stroke="black" points="214.5,-65.5 214.5,-86.5 264.5,-86.5 264.5,-65.5 214.5,-65.5"/>
<polygon fill="none" stroke="black" points="3.5,-44.5 3.5,-65.5 214.5,-65.5 214.5,-44.5 3.5,-44.5"/>
<text text-anchor="start" x="14" y="-51.3" font-family="Times New Roman,serif" font-size="14.00">Trunk function (nothing calls this)</text>
<polygon fill="#966f33" stroke="transparent" points="214.5,-44.5 214.5,-65.5 264.5,-65.5 264.5,-44.5 214.5,-44.5"/>
<polygon fill="none" stroke="black" points="214.5,-44.5 214.5,-65.5 264.5,-65.5 264.5,-44.5 214.5,-44.5"/>
<polygon fill="none" stroke="black" points="3.5,-23.5 3.5,-44.5 214.5,-44.5 214.5,-23.5 3.5,-23.5"/>
<text text-anchor="start" x="6.5" y="-30.3" font-family="Times New Roman,serif" font-size="14.00">Leaf function (this calls nothing else)</text>
<polygon fill="#6db33f" stroke="transparent" points="214.5,-23.5 214.5,-44.5 264.5,-44.5 264.5,-23.5 214.5,-23.5"/>
<polygon fill="none" stroke="black" points="214.5,-23.5 214.5,-44.5 264.5,-44.5 264.5,-23.5 214.5,-23.5"/>
<polygon fill="none" stroke="black" points="3.5,-2.5 3.5,-23.5 214.5,-23.5 214.5,-2.5 3.5,-2.5"/>
<text text-anchor="start" x="72.5" y="-9.3" font-family="Times New Roman,serif" font-size="14.00">Function call</text>
<polygon fill="none" stroke="black" points="214.5,-2.5 214.5,-23.5 264.5,-23.5 264.5,-2.5 214.5,-2.5"/>
<text text-anchor="start" x="232" y="-9.3" font-family="Times New Roman,serif" font-size="14.00">→</text>
<polygon fill="none" stroke="black" points="2.5,-1.5 2.5,-87.5 265.5,-87.5 265.5,-1.5 2.5,-1.5"/>
<polygon fill="none" stroke="black" points="0,0 0,-107 267,-107 267,0 0,0"/>
</g>
<!-- node_93fbfacf -->
<g id="node2" class="node">
<title>node_93fbfacf</title>
<path fill="#6db33f" stroke="black" d="M472.5,-160.5C472.5,-160.5 321.5,-160.5 321.5,-160.5 315.5,-160.5 309.5,-154.5 309.5,-148.5 309.5,-148.5 309.5,-136.5 309.5,-136.5 309.5,-130.5 315.5,-124.5 321.5,-124.5 321.5,-124.5 472.5,-124.5 472.5,-124.5 478.5,-124.5 484.5,-130.5 484.5,-136.5 484.5,-136.5 484.5,-148.5 484.5,-148.5 484.5,-154.5 478.5,-160.5 472.5,-160.5"/>
<text text-anchor="middle" x="397" y="-138.8" font-family="Times New Roman,serif" font-size="14.00">20: create_clf_xgbt_model()</text>
</g>
<!-- node_5dffb92a -->
<g id="node3" class="node">
<title>node_5dffb92a</title>
<path fill="#6db33f" stroke="black" d="M479,-214.5C479,-214.5 315,-214.5 315,-214.5 309,-214.5 303,-208.5 303,-202.5 303,-202.5 303,-190.5 303,-190.5 303,-184.5 309,-178.5 315,-178.5 315,-178.5 479,-178.5 479,-178.5 485,-178.5 491,-184.5 491,-190.5 491,-190.5 491,-202.5 491,-202.5 491,-208.5 485,-214.5 479,-214.5"/>
<text text-anchor="middle" x="397" y="-192.8" font-family="Times New Roman,serif" font-size="14.00">30: interpret_clf_xgbt_model()</text>
</g>
<!-- node_bb023570 -->
<g id="node4" class="node">
<title>node_bb023570</title>
<path fill="#966f33" stroke="black" d="M204,-187.5C204,-187.5 63,-187.5 63,-187.5 57,-187.5 51,-181.5 51,-175.5 51,-175.5 51,-163.5 51,-163.5 51,-157.5 57,-151.5 63,-151.5 63,-151.5 204,-151.5 204,-151.5 210,-151.5 216,-157.5 216,-163.5 216,-163.5 216,-175.5 216,-175.5 216,-181.5 210,-187.5 204,-187.5"/>
<text text-anchor="middle" x="133.5" y="-165.8" font-family="Times New Roman,serif" font-size="14.00">59: xgboost_train_model()</text>
</g>
<!-- node_bb023570&#45;&gt;node_93fbfacf -->
<g id="edge1" class="edge">
<title>node_bb023570&#45;&gt;node_93fbfacf</title>
<path fill="none" stroke="#000000" stroke-width="2" d="M216.15,-156C216.15,-156 299.17,-156 299.17,-156"/>
<polygon fill="#000000" stroke="#000000" stroke-width="2" points="299.17,-159.5 309.17,-156 299.17,-152.5 299.17,-159.5"/>
</g>
<!-- node_bb023570&#45;&gt;node_5dffb92a -->
<g id="edge2" class="edge">
<title>node_bb023570&#45;&gt;node_5dffb92a</title>
<path fill="none" stroke="#000000" stroke-width="2" d="M216.15,-183C216.15,-183 292.69,-183 292.69,-183"/>
<polygon fill="#000000" stroke="#000000" stroke-width="2" points="292.69,-186.5 302.69,-183 292.69,-179.5 292.69,-186.5"/>
</g>
</g>
</svg>
