<?xml version="1.0" encoding="UTF-8" standalone="no"?>
<!DOCTYPE svg PUBLIC "-//W3C//DTD SVG 1.1//EN"
 "http://www.w3.org/Graphics/SVG/1.1/DTD/svg11.dtd">
<!-- Generated by graphviz version 2.50.0 (20211204.2007)
 -->
<!-- Title: G Pages: 1 -->
<svg width="485pt" height="209pt"
 viewBox="0.00 0.00 485.00 208.50" xmlns="http://www.w3.org/2000/svg" xmlns:xlink="http://www.w3.org/1999/xlink">
<g id="graph0" class="graph" transform="scale(1 1) rotate(0) translate(4 204.5)">
<title>G</title>
<polygon fill="white" stroke="transparent" points="-4,4 -4,-204.5 481,-204.5 481,4 -4,4"/>
<g id="clust2" class="cluster">
<title>cluster_d897af93</title>
<polygon fill="none" stroke="black" stroke-dasharray="1,5" points="32,-117.5 32,-192.5 469,-192.5 469,-117.5 32,-117.5"/>
<text text-anchor="middle" x="250.5" y="-177.3" font-family="Times New Roman,serif" font-size="14.00">File: util_model_comparison</text>
</g>
<!-- Legend -->
<g id="node1" class="node">
<title>Legend</title>
<polygon fill="none" stroke="black" points="1.5,-88.5 1.5,-105.5 266.5,-105.5 266.5,-88.5 1.5,-88.5"/>
<text text-anchor="start" x="80" y="-93.3" font-family="Times New Roman,serif" font-size="14.00">Code2flow Legend</text>
<polygon fill="none" stroke="black" points="1.5,-0.5 1.5,-88.5 266.5,-88.5 266.5,-0.5 1.5,-0.5"/>
<polygon fill="none" stroke="black" points="3.5,-65.5 3.5,-86.5 214.5,-86.5 214.5,-65.5 3.5,-65.5"/>
<text text-anchor="start" x="62.5" y="-72.3" font-family="Times New Roman,serif" font-size="14.00">Regular function</text>
<polygon fill="#cccccc" stroke="transparent" points="214.5,-65.5 214.5,-86.5 264.5,-86.5 264.5,-65.5 214.5,-65.5"/>
<polygon fill="none" stroke="black" points="214.5,-65.5 214.5,-86.5 264.5,-86.5 264.5,-65.5 214.5,-65.5"/>
<polygon fill="none" stroke="black" points="3.5,-44.5 3.5,-65.5 214.5,-65.5 214.5,-44.5 3.5,-44.5"/>
<text text-anchor="start" x="14" y="-51.3" font-family="Times New Roman,serif" font-size="14.00">Trunk function (nothing calls this)</text>
<polygon fill="#966f33" stroke="transparent" points="214.5,-44.5 214.5,-65.5 264.5,-65.5 264.5,-44.5 214.5,-44.5"/>
<polygon fill="none" stroke="black" points="214.5,-44.5 214.5,-65.5 264.5,-65.5 264.5,-44.5 214.5,-44.5"/>
<polygon fill="none" stroke="black" points="3.5,-23.5 3.5,-44.5 214.5,-44.5 214.5,-23.5 3.5,-23.5"/>
<text text-anchor="start" x="6.5" y="-30.3" font-family="Times New Roman,serif" font-size="14.00">Leaf function (this calls nothing else)</text>
<polygon fill="#6db33f" stroke="transparent" points="214.5,-23.5 214.5,-44.5 264.5,-44.5 264.5,-23.5 214.5,-23.5"/>
<polygon fill="none" stroke="black" points="214.5,-23.5 214.5,-44.5 264.5,-44.5 264.5,-23.5 214.5,-23.5"/>
<polygon fill="none" stroke="black" points="3.5,-2.5 3.5,-23.5 214.5,-23.5 214.5,-2.5 3.5,-2.5"/>
<text text-anchor="start" x="72.5" y="-9.3" font-family="Times New Roman,serif" font-size="14.00">Function call</text>
<polygon fill="none" stroke="black" points="214.5,-2.5 214.5,-23.5 264.5,-23.5 264.5,-2.5 214.5,-2.5"/>
<text text-anchor="start" x="232" y="-9.3" font-family="Times New Roman,serif" font-size="14.00">→</text>
<polygon fill="none" stroke="black" points="2.5,-1.5 2.5,-87.5 265.5,-87.5 265.5,-1.5 2.5,-1.5"/>
<polygon fill="none" stroke="black" points="0,0 0,-107 267,-107 267,0 0,0"/>
</g>
<!-- node_6ad6335e -->
<g id="node2" class="node">
<title>node_6ad6335e</title>
<path fill="#966f33" stroke="black" d="M215,-161.5C215,-161.5 52,-161.5 52,-161.5 46,-161.5 40,-155.5 40,-149.5 40,-149.5 40,-137.5 40,-137.5 40,-131.5 46,-125.5 52,-125.5 52,-125.5 215,-125.5 215,-125.5 221,-125.5 227,-131.5 227,-137.5 227,-137.5 227,-149.5 227,-149.5 227,-155.5 221,-161.5 215,-161.5"/>
<text text-anchor="middle" x="133.5" y="-139.8" font-family="Times New Roman,serif" font-size="14.00">37: model_comparison_view()</text>
</g>
<!-- node_27f474e2 -->
<g id="node3" class="node">
<title>node_27f474e2</title>
<path fill="#6db33f" stroke="black" d="M449,-161.5C449,-161.5 315,-161.5 315,-161.5 309,-161.5 303,-155.5 303,-149.5 303,-149.5 303,-137.5 303,-137.5 303,-131.5 309,-125.5 315,-125.5 315,-125.5 449,-125.5 449,-125.5 455,-125.5 461,-131.5 461,-137.5 461,-137.5 461,-149.5 461,-149.5 461,-155.5 455,-161.5 449,-161.5"/>
<text text-anchor="middle" x="382" y="-139.8" font-family="Times New Roman,serif" font-size="14.00">18: roc_auc_for_model()</text>
</g>
<!-- node_6ad6335e&#45;&gt;node_27f474e2 -->
<g id="edge1" class="edge">
<title>node_6ad6335e&#45;&gt;node_27f474e2</title>
<path fill="none" stroke="#d55e00" stroke-width="2" d="M227.09,-143.5C227.09,-143.5 292.71,-143.5 292.71,-143.5"/>
<polygon fill="#d55e00" stroke="#d55e00" stroke-width="2" points="292.71,-147 302.71,-143.5 292.71,-140 292.71,-147"/>
</g>
</g>
</svg>
