<?xml version="1.0" encoding="UTF-8" standalone="no"?>
<!DOCTYPE svg PUBLIC "-//W3C//DTD SVG 1.1//EN"
 "http://www.w3.org/Graphics/SVG/1.1/DTD/svg11.dtd">
<!-- Generated by graphviz version 2.38.0 (20140413.2041)
 -->
<!-- Title: G Pages: 1 -->
<svg width="174pt" height="184pt"
 viewBox="0.00 0.00 174.00 183.85" xmlns="http://www.w3.org/2000/svg" xmlns:xlink="http://www.w3.org/1999/xlink">
<g id="graph0" class="graph" transform="scale(1 1) rotate(0) translate(4 179.853)">
<title>G</title><style>.edge>path:hover{stroke-width:8}</style>
<polygon fill="white" stroke="none" points="-4,4 -4,-179.853 170,-179.853 170,4 -4,4"/>
<g id="clust1" class="cluster"><title>cluster_features</title><style>.edge>path:hover{stroke-width:8}</style>
<polygon fill="none" stroke="black" points="8,-8 8,-167.853 158,-167.853 158,-8 8,-8"/>
<text text-anchor="middle" x="83" y="-15.8" font-family="Times New Roman,serif" font-size="14.00">features</text>
</g>
<!-- features_build_features -->
<g id="node1" class="node"><title>features_build_features</title><style>.edge>path:hover{stroke-width:8}</style>
<ellipse fill="#9f5656" stroke="black" cx="83" cy="-138.64" rx="54.3945" ry="21.4286"/>
<text text-anchor="middle" x="83" y="-141.64" font-family="Helvetica,sans-Serif" font-size="10.00" fill="#ffffff">features.</text>
<text text-anchor="middle" x="83" y="-130.64" font-family="Helvetica,sans-Serif" font-size="10.00" fill="#ffffff">build_features</text>
</g>
<!-- features_util_build_features -->
<g id="node2" class="node"><title>features_util_build_features</title><style>.edge>path:hover{stroke-width:8}</style>
<ellipse fill="#b65353" stroke="black" cx="83" cy="-60.2132" rx="67.3507" ry="21.4286"/>
<text text-anchor="middle" x="83" y="-63.2132" font-family="Helvetica,sans-Serif" font-size="10.00" fill="#ffffff">features.</text>
<text text-anchor="middle" x="83" y="-52.2132" font-family="Helvetica,sans-Serif" font-size="10.00" fill="#ffffff">util_build_features</text>
</g>
<!-- features_util_build_features&#45;&gt;features_build_features -->
<g id="edge1" class="edge"><title>features_util_build_features&#45;&gt;features_build_features</title><style>.edge>path:hover{stroke-width:8}</style>
<path fill="none" stroke="black" d="M83,-81.6941C83,-89.5527 83,-98.697 83,-107.287"/>
<polygon fill="#000000" stroke="black" points="79.5001,-107.367 83,-117.367 86.5001,-107.367 79.5001,-107.367"/>
</g>
</g>
</svg>
