<?xml version="1.0" encoding="UTF-8" standalone="no"?>
<!DOCTYPE svg PUBLIC "-//W3C//DTD SVG 1.1//EN"
 "http://www.w3.org/Graphics/SVG/1.1/DTD/svg11.dtd">
<!-- Generated by graphviz version 2.38.0 (20140413.2041)
 -->
<!-- Title: G Pages: 1 -->
<svg width="1776pt" height="889pt"
 viewBox="0.00 0.00 1776.37 889.14" xmlns="http://www.w3.org/2000/svg" xmlns:xlink="http://www.w3.org/1999/xlink">
<g id="graph0" class="graph" transform="scale(1 1) rotate(0) translate(4 885.136)">
<title>G</title><style>.edge>path:hover{stroke-width:8}</style>
<polygon fill="white" stroke="none" points="-4,4 -4,-885.136 1772.37,-885.136 1772.37,4 -4,4"/>
<g id="clust1" class="cluster"><title>cluster_IPython</title><style>.edge>path:hover{stroke-width:8}</style>
<polygon fill="none" stroke="black" points="1442.02,-192 1442.02,-363.983 1646.02,-363.983 1646.02,-192 1442.02,-192"/>
<text text-anchor="middle" x="1544.02" y="-199.8" font-family="Times New Roman,serif" font-size="14.00">IPython</text>
</g>
<g id="clust3" class="cluster"><title>cluster_cycler</title><style>.edge>path:hover{stroke-width:8}</style>
<polygon fill="none" stroke="black" points="1364.02,-288.983 1364.02,-363.983 1434.02,-363.983 1434.02,-288.983 1364.02,-288.983"/>
<text text-anchor="middle" x="1399.02" y="-296.783" font-family="Times New Roman,serif" font-size="14.00">cycler</text>
</g>
<g id="clust4" class="cluster"><title>cluster_joblib</title><style>.edge>path:hover{stroke-width:8}</style>
<polygon fill="none" stroke="black" points="349.024,-371.983 349.024,-453.409 507.024,-453.409 507.024,-371.983 349.024,-371.983"/>
<text text-anchor="middle" x="428.024" y="-379.783" font-family="Times New Roman,serif" font-size="14.00">joblib</text>
</g>
<g id="clust2" class="cluster"><title>cluster_certifi</title><style>.edge>path:hover{stroke-width:8}</style>
<polygon fill="none" stroke="black" points="1566.02,-375.196 1566.02,-450.196 1636.02,-450.196 1636.02,-375.196 1566.02,-375.196"/>
<text text-anchor="middle" x="1601.02" y="-382.996" font-family="Times New Roman,serif" font-size="14.00">certifi</text>
</g>
<g id="clust5" class="cluster"><title>cluster_mkl</title><style>.edge>path:hover{stroke-width:8}</style>
<polygon fill="none" stroke="black" points="979.024,-8 979.024,-83 1049.02,-83 1049.02,-8 979.024,-8"/>
<text text-anchor="middle" x="1014.02" y="-15.8" font-family="Times New Roman,serif" font-size="14.00">mkl</text>
</g>
<g id="clust6" class="cluster"><title>cluster_pytest</title><style>.edge>path:hover{stroke-width:8}</style>
<polygon fill="none" stroke="black" points="1057.02,-8 1057.02,-83 1127.02,-83 1127.02,-8 1057.02,-8"/>
<text text-anchor="middle" x="1092.02" y="-15.8" font-family="Times New Roman,serif" font-size="14.00">pytest</text>
</g>
<g id="clust7" class="cluster"><title>cluster_scipy</title><style>.edge>path:hover{stroke-width:8}</style>
<polygon fill="none" stroke="black" points="515.024,-375.196 515.024,-450.196 803.024,-450.196 803.024,-375.196 515.024,-375.196"/>
<text text-anchor="middle" x="659.024" y="-382.996" font-family="Times New Roman,serif" font-size="14.00">scipy</text>
</g>
<!-- IPython -->
<g id="node1" class="node"><title>IPython</title><style>.edge>path:hover{stroke-width:8}</style>
<ellipse fill="#d02424" stroke="black" cx="1489.02" cy="-337.983" rx="29.3664" ry="18"/>
<text text-anchor="middle" x="1489.02" y="-335.483" font-family="Helvetica,sans-Serif" font-size="10.00" fill="#ffffff">IPython</text>
</g>
<!-- matplotlib -->
<g id="node29" class="node"><title>matplotlib</title><style>.edge>path:hover{stroke-width:8}</style>
<polygon fill="#1a9503" stroke="black" points="1518.52,-525.187 1515.52,-529.187 1494.52,-529.187 1491.52,-525.187 1459.52,-525.187 1459.52,-489.187 1518.52,-489.187 1518.52,-525.187"/>
<text text-anchor="middle" x="1489.02" y="-504.687" font-family="Helvetica,sans-Serif" font-size="10.00" fill="#ffffff">matplotlib</text>
</g>
<!-- IPython&#45;&gt;matplotlib -->
<g id="edge1" class="edge"><title>IPython&#45;&gt;matplotlib</title><style>.edge>path:hover{stroke-width:8}</style>
<path fill="none" stroke="black" d="M1489.02,-363.929C1489.02,-394.589 1489.02,-446.463 1489.02,-478.378"/>
<polygon fill="#000000" stroke="black" points="1485.52,-478.767 1489.02,-488.767 1492.52,-478.767 1485.52,-478.767"/>
</g>
<!-- IPython_core -->
<g id="node2" class="node"><title>IPython_core</title><style>.edge>path:hover{stroke-width:8}</style>
<ellipse fill="#db2f2f" stroke="black" cx="1596.02" cy="-251.991" rx="41.5911" ry="18"/>
<text text-anchor="middle" x="1596.02" y="-249.491" font-family="Helvetica,sans-Serif" font-size="10.00" fill="#ffffff">IPython.core</text>
</g>
<!-- IPython_core&#45;&gt;IPython -->
<g id="edge2" class="edge"><title>IPython_core&#45;&gt;IPython</title><style>.edge>path:hover{stroke-width:8}</style>
<path fill="none" stroke="black" d="M1571,-266.552C1554.59,-275.538 1535.53,-286.17 1532.02,-288.983 1523.26,-296.02 1514.74,-304.93 1507.64,-313.157"/>
<polygon fill="#000000" stroke="black" points="1504.76,-311.141 1501.05,-321.062 1510.14,-315.624 1504.76,-311.141"/>
</g>
<!-- IPython_core&#45;&gt;matplotlib -->
<g id="edge3" class="edge"><title>IPython_core&#45;&gt;matplotlib</title><style>.edge>path:hover{stroke-width:8}</style>
<path fill="none" stroke="black" d="M1549.14,-363.93C1531.05,-406.746 1511.93,-451.989 1500.23,-479.662"/>
<polygon fill="#000000" stroke="black" points="1496.99,-478.348 1496.32,-488.922 1503.44,-481.073 1496.99,-478.348"/>
</g>
<!-- IPython_core_pylabtools -->
<g id="node3" class="node"><title>IPython_core_pylabtools</title><style>.edge>path:hover{stroke-width:8}</style>
<ellipse fill="#913030" stroke="black" cx="1493.02" cy="-251.991" rx="43.2674" ry="28.9828"/>
<text text-anchor="middle" x="1493.02" y="-260.491" font-family="Helvetica,sans-Serif" font-size="10.00" fill="#ffffff">IPython.</text>
<text text-anchor="middle" x="1493.02" y="-249.491" font-family="Helvetica,sans-Serif" font-size="10.00" fill="#ffffff">core.</text>
<text text-anchor="middle" x="1493.02" y="-238.491" font-family="Helvetica,sans-Serif" font-size="10.00" fill="#ffffff">pylabtools</text>
</g>
<!-- IPython_core_pylabtools&#45;&gt;matplotlib -->
<g id="edge4" class="edge"><title>IPython_core_pylabtools&#45;&gt;matplotlib</title><style>.edge>path:hover{stroke-width:8}</style>
<path fill="none" stroke="black" d="M1442.07,-257.361C1399.62,-262.184 1343.93,-271.667 1330.02,-288.983 1284.26,-345.956 1287.26,-394.152 1330.02,-453.409 1357.02,-490.812 1411.59,-502.128 1449.21,-505.324"/>
<polygon fill="#000000" stroke="black" points="1449.11,-508.826 1459.33,-506.025 1449.6,-501.843 1449.11,-508.826"/>
</g>
<!-- certifi -->
<g id="node4" class="node"><title>certifi</title><style>.edge>path:hover{stroke-width:8}</style>
<ellipse fill="#b68153" stroke="black" cx="1601.02" cy="-424.196" rx="27" ry="18"/>
<text text-anchor="middle" x="1601.02" y="-421.696" font-family="Helvetica,sans-Serif" font-size="10.00" fill="#000000">certifi</text>
</g>
<!-- certifi&#45;&gt;matplotlib -->
<g id="edge5" class="edge"><title>certifi&#45;&gt;matplotlib</title><style>.edge>path:hover{stroke-width:8}</style>
<path fill="none" stroke="black" d="M1566.77,-449.963C1552.24,-460.475 1535.39,-472.66 1521.1,-482.994"/>
<polygon fill="#000000" stroke="black" points="1518.88,-480.275 1512.83,-488.971 1522.99,-485.947 1518.88,-480.275"/>
</g>
<!-- cycler -->
<g id="node5" class="node"><title>cycler</title><style>.edge>path:hover{stroke-width:8}</style>
<ellipse fill="#c2b947" stroke="black" cx="1399.02" cy="-337.983" rx="27" ry="18"/>
<text text-anchor="middle" x="1399.02" y="-335.483" font-family="Helvetica,sans-Serif" font-size="10.00" fill="#000000">cycler</text>
</g>
<!-- cycler&#45;&gt;matplotlib -->
<g id="edge6" class="edge"><title>cycler&#45;&gt;matplotlib</title><style>.edge>path:hover{stroke-width:8}</style>
<path fill="none" stroke="black" d="M1412.41,-363.86C1429.18,-395.008 1457.77,-448.129 1474.88,-479.917"/>
<polygon fill="#000000" stroke="black" points="1471.97,-481.89 1479.79,-489.037 1478.14,-478.572 1471.97,-481.89"/>
</g>
<!-- joblib -->
<g id="node6" class="node"><title>joblib</title><style>.edge>path:hover{stroke-width:8}</style>
<ellipse fill="#a0f910" stroke="black" cx="472.024" cy="-424.196" rx="27" ry="18"/>
<text text-anchor="middle" x="472.024" y="-421.696" font-family="Helvetica,sans-Serif" font-size="10.00" fill="#000000">joblib</text>
</g>
<!-- sklearn -->
<g id="node33" class="node"><title>sklearn</title><style>.edge>path:hover{stroke-width:8}</style>
<polygon fill="#b304a6" stroke="black" points="607.024,-645.179 604.024,-649.179 583.024,-649.179 580.024,-645.179 553.024,-645.179 553.024,-609.179 607.024,-609.179 607.024,-645.179"/>
<text text-anchor="middle" x="580.024" y="-624.679" font-family="Helvetica,sans-Serif" font-size="10.00" fill="#ffffff">sklearn</text>
</g>
<!-- joblib&#45;&gt;sklearn -->
<g id="edge7" class="edge"><title>joblib&#45;&gt;sklearn</title><style>.edge>path:hover{stroke-width:8}</style>
<path fill="none" stroke="black" d="M465.57,-452.832C460.314,-482.073 456.575,-528.546 476.024,-562.187 490.666,-587.513 519.74,-604.128 543.433,-614.066"/>
<polygon fill="#000000" stroke="black" points="542.282,-617.374 552.868,-617.798 544.857,-610.865 542.282,-617.374"/>
</g>
<!-- joblib_Parallel -->
<g id="node7" class="node"><title>joblib_Parallel</title><style>.edge>path:hover{stroke-width:8}</style>
<ellipse fill="#a0f910" stroke="black" cx="392.024" cy="-424.196" rx="34.7971" ry="21.4286"/>
<text text-anchor="middle" x="392.024" y="-427.196" font-family="Helvetica,sans-Serif" font-size="10.00" fill="#000000">joblib.</text>
<text text-anchor="middle" x="392.024" y="-416.196" font-family="Helvetica,sans-Serif" font-size="10.00" fill="#000000">Parallel</text>
</g>
<!-- joblib_Parallel&#45;&gt;sklearn -->
<g id="edge8" class="edge"><title>joblib_Parallel&#45;&gt;sklearn</title><style>.edge>path:hover{stroke-width:8}</style>
<path fill="none" stroke="black" d="M400.207,-453.163C410.185,-483.207 429.587,-530.849 460.024,-562.187 483.29,-586.141 517.475,-603.159 543.413,-613.594"/>
<polygon fill="#000000" stroke="black" points="542.321,-616.924 552.91,-617.271 544.849,-610.396 542.321,-616.924"/>
</g>
<!-- mkl -->
<g id="node8" class="node"><title>mkl</title><style>.edge>path:hover{stroke-width:8}</style>
<ellipse fill="#33cc62" stroke="black" cx="1014.02" cy="-57" rx="27" ry="18"/>
<text text-anchor="middle" x="1014.02" y="-54.5" font-family="Helvetica,sans-Serif" font-size="10.00" fill="#000000">mkl</text>
</g>
<!-- numpy -->
<g id="node30" class="node"><title>numpy</title><style>.edge>path:hover{stroke-width:8}</style>
<polygon fill="#039574" stroke="black" points="1075.02,-184 1072.02,-188 1051.02,-188 1048.02,-184 1021.02,-184 1021.02,-148 1075.02,-148 1075.02,-184"/>
<text text-anchor="middle" x="1048.02" y="-163.5" font-family="Helvetica,sans-Serif" font-size="10.00" fill="#ffffff">numpy</text>
</g>
<!-- mkl&#45;&gt;numpy -->
<g id="edge15" class="edge"><title>mkl&#45;&gt;numpy</title><style>.edge>path:hover{stroke-width:8}</style>
<path fill="none" stroke="black" d="M1021.91,-82.8286C1027.16,-99.3384 1034.05,-121.018 1039.43,-137.964"/>
<polygon fill="#000000" stroke="black" points="1036.16,-139.219 1042.52,-147.69 1042.83,-137.099 1036.16,-139.219"/>
</g>
<!-- pytest -->
<g id="node9" class="node"><title>pytest</title><style>.edge>path:hover{stroke-width:8}</style>
<ellipse fill="#4126d9" stroke="black" cx="1092.02" cy="-57" rx="27" ry="18"/>
<text text-anchor="middle" x="1092.02" y="-54.5" font-family="Helvetica,sans-Serif" font-size="10.00" fill="#ffffff">pytest</text>
</g>
<!-- pytest&#45;&gt;matplotlib -->
<g id="edge41" class="edge"><title>pytest&#45;&gt;matplotlib</title><style>.edge>path:hover{stroke-width:8}</style>
<path fill="none" stroke="black" d="M1126.78,-60.3658C1256.38,-69.6431 1704.02,-105.961 1704.02,-165 1704.02,-165 1704.02,-165 1704.02,-338.983 1704.02,-392.432 1705.28,-416.081 1667.02,-453.409 1629.86,-489.675 1568.98,-501.198 1528.95,-504.757"/>
<polygon fill="#000000" stroke="black" points="1528.45,-501.285 1518.75,-505.533 1528.98,-508.264 1528.45,-501.285"/>
</g>
<!-- pytest&#45;&gt;numpy -->
<g id="edge42" class="edge"><title>pytest&#45;&gt;numpy</title><style>.edge>path:hover{stroke-width:8}</style>
<path fill="none" stroke="black" d="M1081.8,-82.8682C1074.97,-99.462 1066.01,-121.266 1059.03,-138.237"/>
<polygon fill="#000000" stroke="black" points="1055.71,-137.11 1055.14,-147.69 1062.18,-139.772 1055.71,-137.11"/>
</g>
<!-- pandas -->
<g id="node31" class="node"><title>pandas</title><style>.edge>path:hover{stroke-width:8}</style>
<polygon fill="#037495" stroke="black" points="909.024,-442.196 906.024,-446.196 885.024,-446.196 882.024,-442.196 855.024,-442.196 855.024,-406.196 909.024,-406.196 909.024,-442.196"/>
<text text-anchor="middle" x="882.024" y="-421.696" font-family="Helvetica,sans-Serif" font-size="10.00" fill="#ffffff">pandas</text>
</g>
<!-- pytest&#45;&gt;pandas -->
<g id="edge43" class="edge"><title>pytest&#45;&gt;pandas</title><style>.edge>path:hover{stroke-width:8}</style>
<path fill="none" stroke="black" d="M1057.37,-81.2993C1055.93,-81.9217 1054.48,-82.4927 1053.02,-83 968.669,-112.469 253.024,-75.6454 253.024,-165 253.024,-165 253.024,-165 253.024,-252.991 253.024,-378.91 691.309,-322.328 807.024,-371.983 823.427,-379.021 839.988,-389.849 853.361,-399.739"/>
<polygon fill="#000000" stroke="black" points="851.578,-402.78 861.655,-406.053 855.818,-397.211 851.578,-402.78"/>
</g>
<!-- scipy -->
<g id="node10" class="node"><title>scipy</title><style>.edge>path:hover{stroke-width:8}</style>
<ellipse fill="#7c05c7" stroke="black" cx="656.024" cy="-424.196" rx="27" ry="18"/>
<text text-anchor="middle" x="656.024" y="-421.696" font-family="Helvetica,sans-Serif" font-size="10.00" fill="#ffffff">scipy</text>
</g>
<!-- scipy&#45;&gt;sklearn -->
<g id="edge44" class="edge"><title>scipy&#45;&gt;sklearn</title><style>.edge>path:hover{stroke-width:8}</style>
<path fill="none" stroke="black" d="M624.92,-449.818C623.273,-451.044 621.634,-452.248 620.024,-453.409 596.676,-470.253 579.645,-463.823 566.024,-489.187 547.408,-523.854 558.517,-570.573 568.824,-599.515"/>
<polygon fill="#000000" stroke="black" points="565.583,-600.84 572.386,-608.962 572.133,-598.37 565.583,-600.84"/>
</g>
<!-- scipy_optimize -->
<g id="node11" class="node"><title>scipy_optimize</title><style>.edge>path:hover{stroke-width:8}</style>
<ellipse fill="#9426d9" stroke="black" cx="748.024" cy="-424.196" rx="47.1863" ry="18"/>
<text text-anchor="middle" x="748.024" y="-421.696" font-family="Helvetica,sans-Serif" font-size="10.00" fill="#ffffff">scipy.optimize</text>
</g>
<!-- scipy_optimize&#45;&gt;sklearn -->
<g id="edge45" class="edge"><title>scipy_optimize&#45;&gt;sklearn</title><style>.edge>path:hover{stroke-width:8}</style>
<path fill="none" stroke="black" d="M699.422,-449.977C696.929,-451.156 694.453,-452.306 692.024,-453.409 653.585,-470.872 630.54,-456.333 604.024,-489.187 578.904,-520.313 576.244,-568.519 577.496,-598.667"/>
<polygon fill="#000000" stroke="black" points="574.016,-599.115 578.1,-608.891 581.004,-598.703 574.016,-599.115"/>
</g>
<!-- scipy_special -->
<g id="node12" class="node"><title>scipy_special</title><style>.edge>path:hover{stroke-width:8}</style>
<ellipse fill="#940ce9" stroke="black" cx="567.024" cy="-424.196" rx="43.6222" ry="18"/>
<text text-anchor="middle" x="567.024" y="-421.696" font-family="Helvetica,sans-Serif" font-size="10.00" fill="#ffffff">scipy.special</text>
</g>
<!-- scipy_special&#45;&gt;sklearn -->
<g id="edge46" class="edge"><title>scipy_special&#45;&gt;sklearn</title><style>.edge>path:hover{stroke-width:8}</style>
<path fill="none" stroke="black" d="M524.255,-450.041C510.73,-460.286 497.396,-473.476 490.024,-489.187 476.243,-518.559 475.147,-533.355 490.024,-562.187 501.332,-584.103 523.999,-600.15 543.754,-610.694"/>
<polygon fill="#000000" stroke="black" points="542.36,-613.911 552.864,-615.291 545.513,-607.661 542.36,-613.911"/>
</g>
<!-- src_features_build_features -->
<g id="node13" class="node"><title>src_features_build_features</title><style>.edge>path:hover{stroke-width:8}</style>
<ellipse fill="#a44672" stroke="black" cx="787.024" cy="-852.144" rx="54.3945" ry="28.9828"/>
<text text-anchor="middle" x="787.024" y="-860.644" font-family="Helvetica,sans-Serif" font-size="10.00" fill="#ffffff">src.</text>
<text text-anchor="middle" x="787.024" y="-849.644" font-family="Helvetica,sans-Serif" font-size="10.00" fill="#ffffff">features.</text>
<text text-anchor="middle" x="787.024" y="-838.644" font-family="Helvetica,sans-Serif" font-size="10.00" fill="#ffffff">build_features</text>
</g>
<!-- src_features_util_build_features -->
<g id="node14" class="node"><title>src_features_util_build_features</title><style>.edge>path:hover{stroke-width:8}</style>
<ellipse fill="#a44672" stroke="black" cx="647.024" cy="-852.144" rx="67.3507" ry="28.9828"/>
<text text-anchor="middle" x="647.024" y="-860.644" font-family="Helvetica,sans-Serif" font-size="10.00" fill="#ffffff">src.</text>
<text text-anchor="middle" x="647.024" y="-849.644" font-family="Helvetica,sans-Serif" font-size="10.00" fill="#ffffff">features.</text>
<text text-anchor="middle" x="647.024" y="-838.644" font-family="Helvetica,sans-Serif" font-size="10.00" fill="#ffffff">util_build_features</text>
</g>
<!-- src_models_logistic_train_model -->
<g id="node15" class="node"><title>src_models_logistic_train_model</title><style>.edge>path:hover{stroke-width:8}</style>
<ellipse fill="#9d436d" stroke="black" cx="489.024" cy="-852.144" rx="72.6644" ry="28.9828"/>
<text text-anchor="middle" x="489.024" y="-860.644" font-family="Helvetica,sans-Serif" font-size="10.00" fill="#ffffff">src.</text>
<text text-anchor="middle" x="489.024" y="-849.644" font-family="Helvetica,sans-Serif" font-size="10.00" fill="#ffffff">models.</text>
<text text-anchor="middle" x="489.024" y="-838.644" font-family="Helvetica,sans-Serif" font-size="10.00" fill="#ffffff">logistic_train_model</text>
</g>
<!-- src_models_util_model_class -->
<g id="node16" class="node"><title>src_models_util_model_class</title><style>.edge>path:hover{stroke-width:8}</style>
<ellipse fill="#a44672" stroke="black" cx="335.024" cy="-852.144" rx="62.8651" ry="28.9828"/>
<text text-anchor="middle" x="335.024" y="-860.644" font-family="Helvetica,sans-Serif" font-size="10.00" fill="#ffffff">src.</text>
<text text-anchor="middle" x="335.024" y="-849.644" font-family="Helvetica,sans-Serif" font-size="10.00" fill="#ffffff">models.</text>
<text text-anchor="middle" x="335.024" y="-838.644" font-family="Helvetica,sans-Serif" font-size="10.00" fill="#ffffff">util_model_class</text>
</g>
<!-- src_models_util_model_comparison -->
<g id="node17" class="node"><title>src_models_util_model_comparison</title><style>.edge>path:hover{stroke-width:8}</style>
<ellipse fill="#ac4977" stroke="black" cx="82.0244" cy="-852.144" rx="82.0488" ry="28.9828"/>
<text text-anchor="middle" x="82.0244" y="-860.644" font-family="Helvetica,sans-Serif" font-size="10.00" fill="#ffffff">src.</text>
<text text-anchor="middle" x="82.0244" y="-849.644" font-family="Helvetica,sans-Serif" font-size="10.00" fill="#ffffff">models.</text>
<text text-anchor="middle" x="82.0244" y="-838.644" font-family="Helvetica,sans-Serif" font-size="10.00" fill="#ffffff">util_model_comparison</text>
</g>
<!-- src_models_util_predict_model -->
<g id="node18" class="node"><title>src_models_util_predict_model</title><style>.edge>path:hover{stroke-width:8}</style>
<ellipse fill="#a44672" stroke="black" cx="927.024" cy="-852.144" rx="67.3507" ry="28.9828"/>
<text text-anchor="middle" x="927.024" y="-860.644" font-family="Helvetica,sans-Serif" font-size="10.00" fill="#ffffff">src.</text>
<text text-anchor="middle" x="927.024" y="-849.644" font-family="Helvetica,sans-Serif" font-size="10.00" fill="#ffffff">models.</text>
<text text-anchor="middle" x="927.024" y="-838.644" font-family="Helvetica,sans-Serif" font-size="10.00" fill="#ffffff">util_predict_model</text>
</g>
<!-- src_models_util_predict_model_threshold -->
<g id="node19" class="node"><title>src_models_util_predict_model_threshold</title><style>.edge>path:hover{stroke-width:8}</style>
<ellipse fill="#8f3d63" stroke="black" cx="1519.02" cy="-852.144" rx="98.9899" ry="28.9828"/>
<text text-anchor="middle" x="1519.02" y="-860.644" font-family="Helvetica,sans-Serif" font-size="10.00" fill="#ffffff">src.</text>
<text text-anchor="middle" x="1519.02" y="-849.644" font-family="Helvetica,sans-Serif" font-size="10.00" fill="#ffffff">models.</text>
<text text-anchor="middle" x="1519.02" y="-838.644" font-family="Helvetica,sans-Serif" font-size="10.00" fill="#ffffff">util_predict_model_threshold</text>
</g>
<!-- src_models_util_strategy_table -->
<g id="node20" class="node"><title>src_models_util_strategy_table</title><style>.edge>path:hover{stroke-width:8}</style>
<ellipse fill="#a44672" stroke="black" cx="1200.02" cy="-852.144" rx="67.7647" ry="28.9828"/>
<text text-anchor="middle" x="1200.02" y="-860.644" font-family="Helvetica,sans-Serif" font-size="10.00" fill="#ffffff">src.</text>
<text text-anchor="middle" x="1200.02" y="-849.644" font-family="Helvetica,sans-Serif" font-size="10.00" fill="#ffffff">models.</text>
<text text-anchor="middle" x="1200.02" y="-838.644" font-family="Helvetica,sans-Serif" font-size="10.00" fill="#ffffff">util_strategy_table</text>
</g>
<!-- src_models_util_test -->
<g id="node21" class="node"><title>src_models_util_test</title><style>.edge>path:hover{stroke-width:8}</style>
<ellipse fill="#8f3d63" stroke="black" cx="218.024" cy="-852.144" rx="36.125" ry="28.9828"/>
<text text-anchor="middle" x="218.024" y="-860.644" font-family="Helvetica,sans-Serif" font-size="10.00" fill="#ffffff">src.</text>
<text text-anchor="middle" x="218.024" y="-849.644" font-family="Helvetica,sans-Serif" font-size="10.00" fill="#ffffff">models.</text>
<text text-anchor="middle" x="218.024" y="-838.644" font-family="Helvetica,sans-Serif" font-size="10.00" fill="#ffffff">util_test</text>
</g>
<!-- src_models_xgboost_train_model -->
<g id="node22" class="node"><title>src_models_xgboost_train_model</title><style>.edge>path:hover{stroke-width:8}</style>
<ellipse fill="#b34c7c" stroke="black" cx="1048.02" cy="-424.196" rx="75.8212" ry="28.9828"/>
<text text-anchor="middle" x="1048.02" y="-432.696" font-family="Helvetica,sans-Serif" font-size="10.00" fill="#ffffff">src.</text>
<text text-anchor="middle" x="1048.02" y="-421.696" font-family="Helvetica,sans-Serif" font-size="10.00" fill="#ffffff">models.</text>
<text text-anchor="middle" x="1048.02" y="-410.696" font-family="Helvetica,sans-Serif" font-size="10.00" fill="#ffffff">xgboost_train_model</text>
</g>
<!-- src_visualization_graphs_decision_tree -->
<g id="node23" class="node"><title>src_visualization_graphs_decision_tree</title><style>.edge>path:hover{stroke-width:8}</style>
<ellipse fill="#ac4977" stroke="black" cx="1599.02" cy="-721.161" rx="77.1494" ry="28.9828"/>
<text text-anchor="middle" x="1599.02" y="-729.661" font-family="Helvetica,sans-Serif" font-size="10.00" fill="#ffffff">src.</text>
<text text-anchor="middle" x="1599.02" y="-718.661" font-family="Helvetica,sans-Serif" font-size="10.00" fill="#ffffff">visualization.</text>
<text text-anchor="middle" x="1599.02" y="-707.661" font-family="Helvetica,sans-Serif" font-size="10.00" fill="#ffffff">graphs_decision_tree</text>
</g>
<!-- src_visualization_graphs_download -->
<g id="node24" class="node"><title>src_visualization_graphs_download</title><style>.edge>path:hover{stroke-width:8}</style>
<ellipse fill="#ac4977" stroke="black" cx="1439.02" cy="-721.161" rx="65.1077" ry="28.9828"/>
<text text-anchor="middle" x="1439.02" y="-729.661" font-family="Helvetica,sans-Serif" font-size="10.00" fill="#ffffff">src.</text>
<text text-anchor="middle" x="1439.02" y="-718.661" font-family="Helvetica,sans-Serif" font-size="10.00" fill="#ffffff">visualization.</text>
<text text-anchor="middle" x="1439.02" y="-707.661" font-family="Helvetica,sans-Serif" font-size="10.00" fill="#ffffff">graphs_download</text>
</g>
<!-- src_visualization_graphs_logistic -->
<g id="node25" class="node"><title>src_visualization_graphs_logistic</title><style>.edge>path:hover{stroke-width:8}</style>
<ellipse fill="#ac4977" stroke="black" cx="1344.02" cy="-852.144" rx="57.9655" ry="28.9828"/>
<text text-anchor="middle" x="1344.02" y="-860.644" font-family="Helvetica,sans-Serif" font-size="10.00" fill="#ffffff">src.</text>
<text text-anchor="middle" x="1344.02" y="-849.644" font-family="Helvetica,sans-Serif" font-size="10.00" fill="#ffffff">visualization.</text>
<text text-anchor="middle" x="1344.02" y="-838.644" font-family="Helvetica,sans-Serif" font-size="10.00" fill="#ffffff">graphs_logistic</text>
</g>
<!-- src_visualization_graphs_test -->
<g id="node26" class="node"><title>src_visualization_graphs_test</title><style>.edge>path:hover{stroke-width:8}</style>
<ellipse fill="#964068" stroke="black" cx="1063.02" cy="-852.144" rx="50.8235" ry="28.9828"/>
<text text-anchor="middle" x="1063.02" y="-860.644" font-family="Helvetica,sans-Serif" font-size="10.00" fill="#ffffff">src.</text>
<text text-anchor="middle" x="1063.02" y="-849.644" font-family="Helvetica,sans-Serif" font-size="10.00" fill="#ffffff">visualization.</text>
<text text-anchor="middle" x="1063.02" y="-838.644" font-family="Helvetica,sans-Serif" font-size="10.00" fill="#ffffff">graphs_test</text>
</g>
<!-- src_visualization_graphs_threshold -->
<g id="node27" class="node"><title>src_visualization_graphs_threshold</title><style>.edge>path:hover{stroke-width:8}</style>
<ellipse fill="#964068" stroke="black" cx="1704.02" cy="-852.144" rx="64.1938" ry="28.9828"/>
<text text-anchor="middle" x="1704.02" y="-860.644" font-family="Helvetica,sans-Serif" font-size="10.00" fill="#ffffff">src.</text>
<text text-anchor="middle" x="1704.02" y="-849.644" font-family="Helvetica,sans-Serif" font-size="10.00" fill="#ffffff">visualization.</text>
<text text-anchor="middle" x="1704.02" y="-838.644" font-family="Helvetica,sans-Serif" font-size="10.00" fill="#ffffff">graphs_threshold</text>
</g>
<!-- src_visualization_metrics -->
<g id="node28" class="node"><title>src_visualization_metrics</title><style>.edge>path:hover{stroke-width:8}</style>
<ellipse fill="#b34c7c" stroke="black" cx="1001.02" cy="-627.179" rx="50.8235" ry="28.9828"/>
<text text-anchor="middle" x="1001.02" y="-635.679" font-family="Helvetica,sans-Serif" font-size="10.00" fill="#ffffff">src.</text>
<text text-anchor="middle" x="1001.02" y="-624.679" font-family="Helvetica,sans-Serif" font-size="10.00" fill="#ffffff">visualization.</text>
<text text-anchor="middle" x="1001.02" y="-613.679" font-family="Helvetica,sans-Serif" font-size="10.00" fill="#ffffff">metrics</text>
</g>
<!-- matplotlib&#45;&gt;IPython_core_pylabtools -->
<g id="edge9" class="edge"><title>matplotlib&#45;&gt;IPython_core_pylabtools</title><style>.edge>path:hover{stroke-width:8}</style>
<path fill="none" stroke="black" d="M1459.5,-489.044C1445.02,-479.709 1427.95,-467.247 1415.02,-453.409 1362.42,-397.096 1313.19,-350.175 1360.02,-288.983 1370.07,-275.856 1408.03,-266.413 1440.84,-260.502"/>
<polygon fill="#1a9503" stroke="black" points="1435.3,-267.972 1442.02,-259.781 1431.66,-261.994 1435.3,-267.972"/>
</g>
<!-- matplotlib&#45;&gt;src_visualization_graphs_decision_tree -->
<g id="edge11" class="edge"><title>matplotlib&#45;&gt;src_visualization_graphs_decision_tree</title><style>.edge>path:hover{stroke-width:8}</style>
<path fill="none" stroke="black" d="M1498.03,-525.534C1515.84,-559.853 1555.91,-637.085 1579.88,-683.275"/>
<polygon fill="#1a9503" stroke="black" points="1576.88,-685.092 1584.6,-692.356 1583.1,-681.868 1576.88,-685.092"/>
</g>
<!-- matplotlib&#45;&gt;src_visualization_graphs_download -->
<g id="edge12" class="edge"><title>matplotlib&#45;&gt;src_visualization_graphs_download</title><style>.edge>path:hover{stroke-width:8}</style>
<path fill="none" stroke="black" d="M1484.93,-525.534C1476.91,-559.547 1458.95,-635.707 1448.02,-682.029"/>
<polygon fill="#1a9503" stroke="black" points="1444.56,-681.459 1445.67,-691.996 1451.37,-683.066 1444.56,-681.459"/>
</g>
<!-- matplotlib&#45;&gt;src_visualization_graphs_test -->
<g id="edge13" class="edge"><title>matplotlib&#45;&gt;src_visualization_graphs_test</title><style>.edge>path:hover{stroke-width:8}</style>
<path fill="none" stroke="black" d="M1459.33,-508.272C1397.44,-510.026 1253.34,-522.547 1168.02,-598.187 1103.85,-655.085 1077.98,-757.383 1068.3,-812.858"/>
<polygon fill="#1a9503" stroke="black" points="1064.8,-812.538 1066.62,-822.976 1071.71,-813.682 1064.8,-812.538"/>
</g>
<!-- matplotlib&#45;&gt;src_visualization_graphs_threshold -->
<g id="edge14" class="edge"><title>matplotlib&#45;&gt;src_visualization_graphs_threshold</title><style>.edge>path:hover{stroke-width:8}</style>
<path fill="none" stroke="black" d="M1518.92,-510.841C1578,-517.896 1704.02,-542.726 1704.02,-626.179 1704.02,-626.179 1704.02,-626.179 1704.02,-722.161 1704.02,-752.667 1704.02,-787.232 1704.02,-812.896"/>
<polygon fill="#1a9503" stroke="black" points="1700.52,-812.963 1704.02,-822.964 1707.52,-812.964 1700.52,-812.963"/>
</g>
<!-- matplotlib&#45;&gt;sklearn -->
<g id="edge10" class="edge"><title>matplotlib&#45;&gt;sklearn</title><style>.edge>path:hover{stroke-width:8}</style>
<path fill="none" stroke="black" d="M1459.3,-512.046C1324.09,-529.597 767.301,-601.87 617.36,-621.332"/>
<polygon fill="#1a9503" stroke="black" points="616.745,-617.883 607.279,-622.641 617.646,-624.825 616.745,-617.883"/>
</g>
<!-- numpy&#45;&gt;scipy -->
<g id="edge19" class="edge"><title>numpy&#45;&gt;scipy</title><style>.edge>path:hover{stroke-width:8}</style>
<path fill="none" stroke="black" d="M1020.97,-166.979C966.129,-167.389 844.071,-170.743 809.024,-192 743.535,-231.721 700.344,-311.395 677.035,-366.003"/>
<polygon fill="#039574" stroke="black" points="673.67,-364.978 673.051,-375.554 680.131,-367.673 673.67,-364.978"/>
</g>
<!-- numpy&#45;&gt;src_models_logistic_train_model -->
<g id="edge21" class="edge"><title>numpy&#45;&gt;src_models_logistic_train_model</title><style>.edge>path:hover{stroke-width:8}</style>
<path fill="none" stroke="black" d="M1020.89,-167.778C952.883,-169.933 776.567,-176.851 720.024,-192 541.454,-239.844 443.484,-215.514 345.024,-371.983 251.435,-520.713 395.688,-733.606 460.322,-816.374"/>
<polygon fill="#039574" stroke="black" points="457.742,-818.754 466.687,-824.433 463.236,-814.416 457.742,-818.754"/>
</g>
<!-- numpy&#45;&gt;src_models_util_predict_model_threshold -->
<g id="edge22" class="edge"><title>numpy&#45;&gt;src_models_util_predict_model_threshold</title><style>.edge>path:hover{stroke-width:8}</style>
<path fill="none" stroke="black" d="M1075.17,-166.82C1121.45,-167.112 1212.77,-170.485 1235.02,-192 1270.19,-226.004 1308.02,-577.26 1308.02,-626.179 1308.02,-626.179 1308.02,-626.179 1308.02,-722.161 1308.02,-756.414 1389.99,-798.076 1451.75,-824.604"/>
<polygon fill="#039574" stroke="black" points="1450.52,-827.882 1461.09,-828.567 1453.25,-821.438 1450.52,-827.882"/>
</g>
<!-- numpy&#45;&gt;src_models_util_strategy_table -->
<g id="edge23" class="edge"><title>numpy&#45;&gt;src_models_util_strategy_table</title><style>.edge>path:hover{stroke-width:8}</style>
<path fill="none" stroke="black" d="M1075.11,-182.461C1116.82,-208.523 1192.02,-265.431 1192.02,-336.983 1192.02,-336.983 1192.02,-336.983 1192.02,-425.196 1192.02,-502.817 1173.37,-520.75 1168.02,-598.187 1166.25,-623.896 1167.63,-630.403 1168.02,-656.17 1168.91,-714.405 1159.23,-730.334 1172.02,-787.153 1174.08,-796.275 1177.44,-805.708 1181.12,-814.436"/>
<polygon fill="#039574" stroke="black" points="1177.94,-815.88 1185.21,-823.583 1184.33,-813.025 1177.94,-815.88"/>
</g>
<!-- numpy&#45;&gt;src_models_util_test -->
<g id="edge24" class="edge"><title>numpy&#45;&gt;src_models_util_test</title><style>.edge>path:hover{stroke-width:8}</style>
<path fill="none" stroke="black" d="M1020.72,-166.851C907.306,-166.399 476.693,-166.399 422.024,-192 343.377,-228.831 291.024,-250.138 291.024,-336.983 291.024,-336.983 291.024,-336.983 291.024,-722.161 291.024,-759.843 267.136,-796.621 246.689,-821.199"/>
<polygon fill="#039574" stroke="black" points="243.801,-819.189 239.927,-829.05 249.105,-823.758 243.801,-819.189"/>
</g>
<!-- numpy&#45;&gt;src_models_xgboost_train_model -->
<g id="edge25" class="edge"><title>numpy&#45;&gt;src_models_xgboost_train_model</title><style>.edge>path:hover{stroke-width:8}</style>
<path fill="none" stroke="black" d="M1048.02,-184.208C1048.02,-224.997 1048.02,-328.364 1048.02,-384.869"/>
<polygon fill="#039574" stroke="black" points="1044.52,-385.181 1048.02,-395.181 1051.52,-385.181 1044.52,-385.181"/>
</g>
<!-- numpy&#45;&gt;src_visualization_graphs_threshold -->
<g id="edge26" class="edge"><title>numpy&#45;&gt;src_visualization_graphs_threshold</title><style>.edge>path:hover{stroke-width:8}</style>
<path fill="none" stroke="black" d="M1075.34,-167.298C1192.74,-168.681 1649.77,-175.133 1675.02,-192 1734.05,-231.427 1742.02,-265.998 1742.02,-336.983 1742.02,-336.983 1742.02,-336.983 1742.02,-722.161 1742.02,-754.105 1731.17,-788.751 1721.06,-814.084"/>
<polygon fill="#039574" stroke="black" points="1717.69,-813.074 1717.1,-823.652 1724.16,-815.75 1717.69,-813.074"/>
</g>
<!-- numpy&#45;&gt;matplotlib -->
<g id="edge16" class="edge"><title>numpy&#45;&gt;matplotlib</title><style>.edge>path:hover{stroke-width:8}</style>
<path fill="none" stroke="black" d="M1075.22,-167.094C1190,-167.62 1629.88,-171.006 1650.02,-192 1690.27,-233.951 1676.26,-407.95 1640.02,-453.409 1613.36,-486.865 1564.1,-499.168 1529.1,-503.661"/>
<polygon fill="#039574" stroke="black" points="1528.28,-500.23 1518.74,-504.819 1529.06,-507.187 1528.28,-500.23"/>
</g>
<!-- numpy&#45;&gt;pandas -->
<g id="edge17" class="edge"><title>numpy&#45;&gt;pandas</title><style>.edge>path:hover{stroke-width:8}</style>
<path fill="none" stroke="black" d="M1036.87,-184.208C1008.35,-228.236 932.578,-345.174 898.746,-397.388"/>
<polygon fill="#039574" stroke="black" points="895.626,-395.768 893.125,-406.063 901.5,-399.574 895.626,-395.768"/>
</g>
<!-- plotly -->
<g id="node32" class="node"><title>plotly</title><style>.edge>path:hover{stroke-width:8}</style>
<polygon fill="#04339f" stroke="black" points="1231.02,-645.179 1228.02,-649.179 1207.02,-649.179 1204.02,-645.179 1177.02,-645.179 1177.02,-609.179 1231.02,-609.179 1231.02,-645.179"/>
<text text-anchor="middle" x="1204.02" y="-624.679" font-family="Helvetica,sans-Serif" font-size="10.00" fill="#ffffff">plotly</text>
</g>
<!-- numpy&#45;&gt;plotly -->
<g id="edge18" class="edge"><title>numpy&#45;&gt;plotly</title><style>.edge>path:hover{stroke-width:8}</style>
<path fill="none" stroke="black" d="M1075.17,-167.583C1115.4,-169.042 1188.04,-174.145 1206.02,-192 1252.37,-238.019 1230.02,-271.669 1230.02,-336.983 1230.02,-336.983 1230.02,-336.983 1230.02,-508.187 1230.02,-539.981 1220.91,-575.488 1213.47,-599.166"/>
<polygon fill="#039574" stroke="black" points="1210.09,-598.258 1210.32,-608.85 1216.74,-600.427 1210.09,-598.258"/>
</g>
<!-- numpy&#45;&gt;sklearn -->
<g id="edge20" class="edge"><title>numpy&#45;&gt;sklearn</title><style>.edge>path:hover{stroke-width:8}</style>
<path fill="none" stroke="black" d="M1020.73,-171.548C1005.3,-175.148 986.297,-181.398 972.024,-192 893.639,-250.229 895.28,-287.67 846.024,-371.983 825.783,-406.63 836.864,-426.582 807.024,-453.409 771.61,-485.248 745.759,-462.938 706.024,-489.187 660.136,-519.502 619.571,-570.06 597.534,-600.544"/>
<polygon fill="#039574" stroke="black" points="594.503,-598.768 591.563,-608.946 600.209,-602.823 594.503,-598.768"/>
</g>
<!-- pandas&#45;&gt;src_features_build_features -->
<g id="edge29" class="edge"><title>pandas&#45;&gt;src_features_build_features</title><style>.edge>path:hover{stroke-width:8}</style>
<path fill="none" stroke="black" d="M879.794,-442.311C873.253,-490.994 852.629,-634.222 822.024,-750.153 816.337,-771.695 808.286,-795.247 801.338,-814.183"/>
<polygon fill="#037495" stroke="black" points="798.031,-813.037 797.825,-823.63 804.591,-815.477 798.031,-813.037"/>
</g>
<!-- pandas&#45;&gt;src_features_util_build_features -->
<g id="edge30" class="edge"><title>pandas&#45;&gt;src_features_util_build_features</title><style>.edge>path:hover{stroke-width:8}</style>
<path fill="none" stroke="black" d="M865.233,-442.463C843.4,-466.815 808.024,-513.612 808.024,-561.187 808.024,-561.187 808.024,-561.187 808.024,-628.179 808.024,-709.647 736.5,-781.567 688.797,-820.475"/>
<polygon fill="#037495" stroke="black" points="686.398,-817.912 680.775,-826.891 690.771,-823.378 686.398,-817.912"/>
</g>
<!-- pandas&#45;&gt;src_models_logistic_train_model -->
<g id="edge31" class="edge"><title>pandas&#45;&gt;src_models_logistic_train_model</title><style>.edge>path:hover{stroke-width:8}</style>
<path fill="none" stroke="black" d="M861.261,-442.239C846.617,-454.651 826.868,-472.196 811.024,-489.187 696.377,-612.139 699.267,-670.699 578.024,-787.153 565.174,-799.495 549.819,-811.369 535.51,-821.466"/>
<polygon fill="#037495" stroke="black" points="533.463,-818.626 527.233,-827.196 537.448,-824.382 533.463,-818.626"/>
</g>
<!-- pandas&#45;&gt;src_models_util_model_class -->
<g id="edge32" class="edge"><title>pandas&#45;&gt;src_models_util_model_class</title><style>.edge>path:hover{stroke-width:8}</style>
<path fill="none" stroke="black" d="M854.978,-435.467C840.728,-440.854 822.948,-447.537 807.024,-453.409 763.129,-469.596 747.847,-464.63 708.024,-489.187 688.222,-501.399 688.66,-511.261 670.024,-525.187 618.18,-563.928 593.413,-556.361 544.024,-598.187 465.534,-664.66 393.797,-763.198 358.331,-815.504"/>
<polygon fill="#037495" stroke="black" points="355.224,-813.852 352.545,-824.102 361.031,-817.759 355.224,-813.852"/>
</g>
<!-- pandas&#45;&gt;src_models_util_predict_model -->
<g id="edge33" class="edge"><title>pandas&#45;&gt;src_models_util_predict_model</title><style>.edge>path:hover{stroke-width:8}</style>
<path fill="none" stroke="black" d="M890.507,-442.324C902.249,-467.654 922.024,-516.89 922.024,-561.187 922.024,-561.187 922.024,-561.187 922.024,-722.161 922.024,-752.69 923.44,-787.253 924.765,-812.911"/>
<polygon fill="#037495" stroke="black" points="921.274,-813.177 925.304,-822.976 928.264,-812.803 921.274,-813.177"/>
</g>
<!-- pandas&#45;&gt;src_models_util_predict_model_threshold -->
<g id="edge34" class="edge"><title>pandas&#45;&gt;src_models_util_predict_model_threshold</title><style>.edge>path:hover{stroke-width:8}</style>
<path fill="none" stroke="black" d="M909.173,-434.904C984.629,-462.393 1194.32,-542.377 1240.02,-598.187 1295.36,-665.766 1232.22,-725.428 1294.02,-787.153 1299.38,-792.499 1374.75,-813.306 1436.8,-829.762"/>
<polygon fill="#037495" stroke="black" points="1436.07,-833.189 1446.63,-832.363 1437.86,-826.422 1436.07,-833.189"/>
</g>
<!-- pandas&#45;&gt;src_models_util_test -->
<g id="edge35" class="edge"><title>pandas&#45;&gt;src_models_util_test</title><style>.edge>path:hover{stroke-width:8}</style>
<path fill="none" stroke="black" d="M854.835,-436.206C840.7,-441.73 823.067,-448.312 807.024,-453.409 747.048,-472.464 728.247,-465.303 670.024,-489.187 580.311,-525.99 556.909,-537.818 481.024,-598.187 391.209,-669.639 390.736,-710.827 305.024,-787.153 289.075,-801.356 270.094,-815.589 253.938,-827.013"/>
<polygon fill="#037495" stroke="black" points="251.485,-824.457 245.29,-833.053 255.493,-830.196 251.485,-824.457"/>
</g>
<!-- pandas&#45;&gt;src_visualization_metrics -->
<g id="edge36" class="edge"><title>pandas&#45;&gt;src_visualization_metrics</title><style>.edge>path:hover{stroke-width:8}</style>
<path fill="none" stroke="black" d="M898.699,-442.431C910.107,-454.792 925.087,-472.197 936.024,-489.187 956.61,-521.165 974.662,-560.677 986.484,-589.037"/>
<polygon fill="#037495" stroke="black" points="983.363,-590.651 990.399,-598.572 989.838,-587.992 983.363,-590.651"/>
</g>
<!-- pandas&#45;&gt;plotly -->
<g id="edge27" class="edge"><title>pandas&#45;&gt;plotly</title><style>.edge>path:hover{stroke-width:8}</style>
<path fill="none" stroke="black" d="M909.2,-442.158C967.124,-478.313 1102.75,-562.966 1167.87,-603.615"/>
<polygon fill="#037495" stroke="black" points="1166.24,-606.723 1176.58,-609.048 1169.95,-600.784 1166.24,-606.723"/>
</g>
<!-- pandas&#45;&gt;sklearn -->
<g id="edge28" class="edge"><title>pandas&#45;&gt;sklearn</title><style>.edge>path:hover{stroke-width:8}</style>
<path fill="none" stroke="black" d="M856.225,-442.257C850.036,-446.101 843.377,-450.037 837.024,-453.409 802.262,-471.86 789.371,-468.286 756.024,-489.187 713.543,-515.813 709.602,-531.411 670.024,-562.187 651.852,-576.318 630.928,-591.271 613.831,-603.166"/>
<polygon fill="#037495" stroke="black" points="611.505,-600.518 605.274,-609.087 615.488,-606.275 611.505,-600.518"/>
</g>
<!-- plotly&#45;&gt;src_models_util_predict_model_threshold -->
<g id="edge37" class="edge"><title>plotly&#45;&gt;src_models_util_predict_model_threshold</title><style>.edge>path:hover{stroke-width:8}</style>
<path fill="none" stroke="black" d="M1207.44,-645.411C1215.11,-682.401 1234.72,-767.64 1256.02,-787.153 1308.18,-834.915 1342.34,-806.28 1411.02,-823.153 1419.5,-825.235 1428.33,-827.45 1437.14,-829.689"/>
<polygon fill="#04339f" stroke="black" points="1436.5,-833.137 1447.05,-832.219 1438.23,-826.354 1436.5,-833.137"/>
</g>
<!-- plotly&#45;&gt;src_models_util_strategy_table -->
<g id="edge38" class="edge"><title>plotly&#45;&gt;src_models_util_strategy_table</title><style>.edge>path:hover{stroke-width:8}</style>
<path fill="none" stroke="black" d="M1195.65,-645.351C1189.99,-657.968 1183.01,-675.709 1180.02,-692.17 1172.49,-733.707 1173.65,-745.422 1180.02,-787.153 1181.35,-795.837 1183.63,-804.962 1186.19,-813.513"/>
<polygon fill="#04339f" stroke="black" points="1182.92,-814.76 1189.28,-823.228 1189.59,-812.637 1182.92,-814.76"/>
</g>
<!-- plotly&#45;&gt;src_visualization_graphs_logistic -->
<g id="edge39" class="edge"><title>plotly&#45;&gt;src_visualization_graphs_logistic</title><style>.edge>path:hover{stroke-width:8}</style>
<path fill="none" stroke="black" d="M1200.54,-645.241C1195.18,-676.394 1188.39,-743.309 1218.02,-787.153 1222.83,-794.26 1259.99,-812.699 1292.72,-827.968"/>
<polygon fill="#04339f" stroke="black" points="1291.25,-831.149 1301.8,-832.179 1294.2,-824.798 1291.25,-831.149"/>
</g>
<!-- plotly&#45;&gt;src_visualization_graphs_threshold -->
<g id="edge40" class="edge"><title>plotly&#45;&gt;src_visualization_graphs_threshold</title><style>.edge>path:hover{stroke-width:8}</style>
<path fill="none" stroke="black" d="M1221.81,-645.327C1249.96,-671.575 1307.52,-721.661 1365.02,-750.153 1473.34,-803.822 1511.91,-786.254 1627.02,-823.153 1633.3,-825.166 1639.83,-827.368 1646.32,-829.624"/>
<polygon fill="#04339f" stroke="black" points="1645.16,-832.925 1655.75,-832.953 1647.49,-826.324 1645.16,-832.925"/>
</g>
<!-- sklearn&#45;&gt;src_features_build_features -->
<g id="edge47" class="edge"><title>sklearn&#45;&gt;src_features_build_features</title><style>.edge>path:hover{stroke-width:8}</style>
<path fill="none" stroke="black" d="M595.924,-645.304C630.252,-682.28 711.805,-770.123 756.475,-818.239"/>
<polygon fill="#b304a6" stroke="black" points="753.946,-820.659 763.315,-825.606 759.076,-815.896 753.946,-820.659"/>
</g>
<!-- sklearn&#45;&gt;src_features_util_build_features -->
<g id="edge48" class="edge"><title>sklearn&#45;&gt;src_features_util_build_features</title><style>.edge>path:hover{stroke-width:8}</style>
<path fill="none" stroke="black" d="M585.171,-645.304C595.921,-681.079 620.98,-764.473 635.692,-813.43"/>
<polygon fill="#b304a6" stroke="black" points="632.347,-814.462 638.577,-823.032 639.051,-812.447 632.347,-814.462"/>
</g>
<!-- sklearn&#45;&gt;src_models_logistic_train_model -->
<g id="edge49" class="edge"><title>sklearn&#45;&gt;src_models_logistic_train_model</title><style>.edge>path:hover{stroke-width:8}</style>
<path fill="none" stroke="black" d="M580.95,-645.527C581.835,-675.998 580.343,-740.338 556.024,-787.153 549.82,-799.096 540.514,-810.068 530.797,-819.428"/>
<polygon fill="#b304a6" stroke="black" points="528.345,-816.928 523.33,-826.261 533.07,-822.092 528.345,-816.928"/>
</g>
<!-- sklearn&#45;&gt;src_models_util_model_class -->
<g id="edge50" class="edge"><title>sklearn&#45;&gt;src_models_util_model_class</title><style>.edge>path:hover{stroke-width:8}</style>
<path fill="none" stroke="black" d="M574.872,-645.491C566.526,-671.064 547.906,-719.238 518.024,-750.153 498.282,-770.578 434.242,-803.793 387.47,-826.515"/>
<polygon fill="#b304a6" stroke="black" points="385.847,-823.412 378.365,-830.912 388.892,-829.715 385.847,-823.412"/>
</g>
<!-- sklearn&#45;&gt;src_models_util_model_comparison -->
<g id="edge51" class="edge"><title>sklearn&#45;&gt;src_models_util_model_comparison</title><style>.edge>path:hover{stroke-width:8}</style>
<path fill="none" stroke="black" d="M552.896,-640.325C474.894,-675.248 248.708,-776.516 140.732,-824.86"/>
<polygon fill="#b304a6" stroke="black" points="139.295,-821.668 131.598,-828.949 142.156,-828.057 139.295,-821.668"/>
</g>
<!-- sklearn&#45;&gt;src_models_util_predict_model -->
<g id="edge52" class="edge"><title>sklearn&#45;&gt;src_models_util_predict_model</title><style>.edge>path:hover{stroke-width:8}</style>
<path fill="none" stroke="black" d="M607.073,-645.224C627.437,-658.079 656.021,-676.171 681.024,-692.17 751.533,-737.287 833.081,-790.115 882.317,-822.082"/>
<polygon fill="#b304a6" stroke="black" points="880.534,-825.097 890.827,-827.608 884.346,-819.226 880.534,-825.097"/>
</g>
<!-- sklearn&#45;&gt;src_models_util_predict_model_threshold -->
<g id="edge53" class="edge"><title>sklearn&#45;&gt;src_models_util_predict_model_threshold</title><style>.edge>path:hover{stroke-width:8}</style>
<path fill="none" stroke="black" d="M607.261,-635.241C696.551,-658.304 988.637,-733.03 1232.02,-787.153 1311.24,-804.768 1331.94,-804.966 1411.02,-823.153 1419.69,-825.145 1428.72,-827.323 1437.7,-829.556"/>
<polygon fill="#b304a6" stroke="black" points="1436.86,-832.954 1447.41,-831.994 1438.57,-826.164 1436.86,-832.954"/>
</g>
<!-- sklearn&#45;&gt;src_models_util_test -->
<g id="edge54" class="edge"><title>sklearn&#45;&gt;src_models_util_test</title><style>.edge>path:hover{stroke-width:8}</style>
<path fill="none" stroke="black" d="M561.705,-645.273C548.829,-657.708 531.555,-675.261 518.024,-692.17 498.774,-716.227 504.411,-731.321 480.024,-750.153 399.488,-812.347 355.067,-779.766 263.024,-823.153 260.028,-824.565 256.985,-826.134 253.967,-827.787"/>
<polygon fill="#b304a6" stroke="black" points="251.972,-824.897 245.061,-832.927 255.472,-830.959 251.972,-824.897"/>
</g>
<!-- sklearn&#45;&gt;src_visualization_graphs_test -->
<g id="edge55" class="edge"><title>sklearn&#45;&gt;src_visualization_graphs_test</title><style>.edge>path:hover{stroke-width:8}</style>
<path fill="none" stroke="black" d="M607.287,-638.449C639.159,-650.617 693.367,-671.814 739.024,-692.17 839.452,-736.944 954.447,-795.038 1016.84,-827.15"/>
<polygon fill="#b304a6" stroke="black" points="1015.54,-830.413 1026.03,-831.884 1018.74,-824.191 1015.54,-830.413"/>
</g>
</g>
</svg>
